<svg xmlns="http://www.w3.org/2000/svg" width="33.477" height="37" viewBox="0 0 33.477 37">
  <g id="trash" transform="translate(-4.999 -3)">
    <path id="Path_14" data-name="Path 14" d="M38.476,8.11a2.026,2.026,0,0,1-.529,1.41,1.5,1.5,0,0,1-1.233.529H26.143a1.762,1.762,0,0,1-1.762-1.762V6.524H19.1V8.286a1.762,1.762,0,0,1-1.762,1.762H6.85A1.85,1.85,0,0,1,5,8.462a2.026,2.026,0,0,1,.529-1.41,1.5,1.5,0,0,1,1.233-.529h8.81V4.762A1.762,1.762,0,0,1,17.333,3h8.81A1.762,1.762,0,0,1,27.9,4.762V6.524h8.721a1.85,1.85,0,0,1,1.85,1.586Z" fill="#75c2f6"/>
    <path id="Path_15" data-name="Path 15" d="M31.751,16.586,29.637,37.9h-14.8L12.723,16.586A1.762,1.762,0,0,0,10.961,15h0A1.762,1.762,0,0,0,9.2,16.938l2.29,22.9a1.762,1.762,0,0,0,1.762,1.586H31.223a1.762,1.762,0,0,0,1.762-1.586l2.29-22.9A1.762,1.762,0,0,0,33.513,15h0A1.762,1.762,0,0,0,31.751,16.586Z" transform="translate(-0.499 -1.429)" fill="#75c2f6"/>
  </g>
</svg>
