<svg xmlns="http://www.w3.org/2000/svg" width="44" height="44" viewBox="0 0 44 44">
  <g id="cancel" transform="translate(-2 -2)">
    <path id="Path_16" data-name="Path 16" d="M24,6A18,18,0,1,1,6,24,18,18,0,0,1,24,6m0-4A21.9,21.9,0,1,0,39.586,8.414,22,22,0,0,0,24,2Z" fill="#666"/>
    <path id="Path_17" data-name="Path 17" d="M26.8,24l5.6-5.5a2.1,2.1,0,0,0,.2-2.7,1.9,1.9,0,0,0-3-.2L24,21.2l-5.6-5.6a1.9,1.9,0,0,0-3,.2,2.1,2.1,0,0,0,.2,2.7L21.2,24l-5.6,5.5a2.1,2.1,0,0,0-.2,2.7,1.9,1.9,0,0,0,3,.2L24,26.8l5.6,5.6a1.9,1.9,0,0,0,3-.2,2.1,2.1,0,0,0-.2-2.7Z" fill="#666"/>
  </g>
</svg>
