<svg xmlns="http://www.w3.org/2000/svg" width="33.477" height="37" viewBox="0 0 33.477 37">
  <g id="trash-solid" transform="translate(-4.999 -3)">
    <path id="Path_18" data-name="Path 18" d="M38.476,8.11a2.026,2.026,0,0,1-.529,1.41,1.5,1.5,0,0,1-1.233.529H6.85A1.85,1.85,0,0,1,5,8.462a2.026,2.026,0,0,1,.529-1.41,1.5,1.5,0,0,1,1.233-.529h8.81V4.762A1.762,1.762,0,0,1,17.333,3h8.81A1.762,1.762,0,0,1,27.9,4.762V6.524h8.721a1.85,1.85,0,0,1,1.85,1.586Z" fill="#75c2f6"/>
    <path id="Path_19" data-name="Path 19" d="M10.961,15h0A1.762,1.762,0,0,0,9.2,16.938l2.29,22.9a1.762,1.762,0,0,0,1.762,1.586H31.223a1.762,1.762,0,0,0,1.762-1.586l2.29-22.9A1.762,1.762,0,0,0,33.513,15H10.961Z" transform="translate(-0.499 -1.429)" fill="#75c2f6"/>
  </g>
</svg>
